<?xml version="1.0" encoding="UTF-8"?>
<svg width="24" height="24" viewBox="0 0 24 24" fill="none" xmlns="http://www.w3.org/2000/svg">
    <!-- First person (helper) -->
    <circle cx="8" cy="7" r="2.5" stroke="#333333" stroke-width="2"/>
    <path d="M4 14.5C4 12.567 5.567 11 7.5 11H8.5C10.433 11 12 12.567 12 14.5V18H4V14.5Z" stroke="#333333" stroke-width="2"/>
    
    <!-- Second person (being helped) -->
    <circle cx="16" cy="7" r="2.5" stroke="#333333" stroke-width="2"/>
    <path d="M12 14.5C12 12.567 13.567 11 15.5 11H16.5C18.433 11 20 12.567 20 14.5V18H12V14.5Z" stroke="#333333" stroke-width="2"/>
    
    <!-- Helping hand gesture -->
    <path d="M10 13C10.5 12.5 11.5 12.5 12 13" stroke="#333333" stroke-width="2" stroke-linecap="round"/>
    
    <!-- Support/connection line -->
    <path d="M8 19C8 20 12 21 16 19" stroke="#333333" stroke-width="2" stroke-linecap="round"/>
</svg> 